<?xml version="1.0" encoding="iso-8859-1"?>
<!-- Uploaded to: SVG Repo, www.svgrepo.com, Generator: SVG Repo Mixer Tools -->
<svg version="1.1" id="Layer_1" xmlns="http://www.w3.org/2000/svg" xmlns:xlink="http://www.w3.org/1999/xlink" 
	 viewBox="0 0 486.611 486.611" xml:space="preserve">
<g id="XMLID_1019_">
	<g id="XMLID_1001_">
		<g id="XMLID_863_">
			<path style="fill:#E0D6C6;" d="M144.463,7.604l-0.007,152.066h30.42v91.24h22.81v-91.24V53.23
				C197.686,23.832,173.861,7.604,144.463,7.604z"/>
		</g>
		<g id="XMLID_911_">
			<path style="fill:#D60B52;" d="M136.86,159.669c-46.191,0-83.636-34.041-83.636-76.033S90.669,7.604,136.86,7.604"/>
		</g>
		<g id="XMLID_1016_">
			<path style="fill:#A1083E;" d="M136.86,7.604c-46.191,0-83.636,34.041-83.636,76.033h91.24V7.604H136.86z"/>
		</g>
		<g id="XMLID_840_">
			<g id="XMLID_843_">
				<path style="fill:#1D1D1B;" d="M205.186,258.409h-37.81V167.17h-7.706v-15h22.706v91.239h7.81V45.62
					c0-16.827-13.69-30.517-30.517-30.517v-15c25.098,0,45.517,20.419,45.517,45.517V258.409z"/>
			</g>
			<g id="XMLID_844_">
				<rect x="167.273" y="266.219" style="fill:#1D1D1B;" width="38.017" height="15"/>
			</g>
			<g id="XMLID_846_">
				<rect x="182.479" y="289.028" style="fill:#1D1D1B;" width="22.81" height="15"/>
			</g>
			<g id="XMLID_847_">
				<rect x="190.083" y="311.839" style="fill:#1D1D1B;" width="15.207" height="15"/>
			</g>
			<g id="XMLID_848_">
				<rect x="167.376" y="68.43" style="fill:#FFFFFF;" width="15" height="68.43"/>
			</g>
			<g id="XMLID_849_">
				<rect x="68.43" y="76.137" style="fill:#FFFFFF;" width="15.207" height="15"/>
			</g>
			<g id="XMLID_856_">
				<rect x="114.05" y="76.137" style="fill:#FFFFFF;" width="15.207" height="15"/>
			</g>
			<g id="XMLID_850_">
				<rect x="91.24" y="53.326" style="fill:#FFFFFF;" width="15.207" height="15"/>
			</g>
			<g id="XMLID_852_">
				<rect x="114.05" y="30.517" style="fill:#FFFFFF;" width="15.207" height="15"/>
			</g>
			<g id="XMLID_851_">
				<rect x="91.24" y="98.946" style="fill:#FFFFFF;" width="15.207" height="15"/>
			</g>
			<g id="XMLID_855_">
				<rect x="114.05" y="121.756" style="fill:#FFFFFF;" width="15.207" height="15"/>
			</g>
			<g id="XMLID_857_">
				<rect x="190.186" y="334.545" style="fill:#1D1D1B;" width="15" height="152.066"/>
			</g>
		</g>
	</g>
	<g id="XMLID_1017_">
		<g id="XMLID_1039_">
			<path style="fill:#E0D6C6;" d="M342.148,7.604l0.007,152.066h-30.42v91.24h-22.81v-91.24V53.23
				C288.926,23.832,312.75,7.604,342.148,7.604z"/>
		</g>
		<g id="XMLID_1038_">
			<path style="fill:#D60B52;" d="M349.752,159.669c46.191,0,83.636-34.041,83.636-76.033S395.943,7.604,349.752,7.604"/>
		</g>
		<g id="XMLID_1037_">
			<path style="fill:#A1083E;" d="M349.752,7.604c46.191,0,83.636,34.041,83.636,76.033h-91.239V7.604H349.752z"/>
		</g>
		<g id="XMLID_1018_">
			<g>
				<path style="fill:#1D1D1B;" d="M136.963,0.104h-7.706c-46.061,0-83.533,37.473-83.533,83.533s37.473,83.533,83.533,83.533v-15
					c-37.79,0-68.533-30.744-68.533-68.533s30.744-68.533,68.533-68.533h7.706v152.169h15V0h-15V0.104z"/>
				<path style="fill:#1D1D1B;" d="M357.355,0.104h-7.707V0h-15v167.273h15V15.104h7.707c37.789,0,68.532,30.744,68.532,68.533
					s-30.743,68.533-68.532,68.533v15c46.06,0,83.532-37.473,83.532-83.533C440.888,37.576,403.415,0.104,357.355,0.104z"/>
			</g>
			<g id="XMLID_1034_">
				<path style="fill:#1D1D1B;" d="M319.236,258.409h-37.81V45.62c0-25.098,20.418-45.517,45.516-45.517v15
					c-16.826,0-30.516,13.689-30.516,30.517v197.789h7.81V152.17h22.706v15h-7.706V258.409z"/>
			</g>
			<g id="XMLID_1033_">
				<rect x="281.323" y="266.219" style="fill:#1D1D1B;" width="38.017" height="15"/>
			</g>
			<g id="XMLID_1030_">
				<rect x="281.323" y="289.028" style="fill:#1D1D1B;" width="22.81" height="15"/>
			</g>
			<g id="XMLID_1029_">
				<rect x="281.323" y="311.839" style="fill:#1D1D1B;" width="15.206" height="15"/>
			</g>
			<g id="XMLID_1028_">
				<rect x="304.236" y="68.43" style="fill:#FFFFFF;" width="15" height="68.43"/>
			</g>
			<g id="XMLID_1026_">
				<rect x="402.975" y="76.137" style="fill:#FFFFFF;" width="15.207" height="15"/>
			</g>
			<g id="XMLID_1025_">
				<rect x="357.355" y="76.137" style="fill:#FFFFFF;" width="15.206" height="15"/>
			</g>
			<g id="XMLID_1024_">
				<rect x="380.165" y="53.326" style="fill:#FFFFFF;" width="15.206" height="15"/>
			</g>
			<g id="XMLID_1023_">
				<rect x="357.355" y="30.517" style="fill:#FFFFFF;" width="15.206" height="15"/>
			</g>
			<g id="XMLID_1022_">
				<rect x="380.165" y="98.946" style="fill:#FFFFFF;" width="15.206" height="15"/>
			</g>
			<g id="XMLID_1021_">
				<rect x="357.355" y="121.756" style="fill:#FFFFFF;" width="15.206" height="15"/>
			</g>
			<g id="XMLID_1020_">
				<rect x="281.426" y="334.545" style="fill:#1D1D1B;" width="15" height="152.066"/>
			</g>
		</g>
	</g>
</g>
</svg>